<mxfile host="app.diagrams.net" modified="2023-10-29T15:30:23.745Z" agent="Mozilla/5.0 (Windows NT 10.0; Win64; x64) AppleWebKit/537.36 (KHTML, like Gecko) Chrome/118.0.0.0 Safari/537.36 Edg/118.0.2088.76" etag="o-7Tzp-plfmBox6A9EiM" version="22.0.8" type="github">
  <diagram id="C5RBs43oDa-KdzZeNtuy" name="Page-1">
    <mxGraphModel dx="746" dy="455" grid="1" gridSize="10" guides="1" tooltips="1" connect="1" arrows="1" fold="1" page="1" pageScale="1" pageWidth="827" pageHeight="1169" math="0" shadow="0">
      <root>
        <mxCell id="WIyWlLk6GJQsqaUBKTNV-0" />
        <mxCell id="WIyWlLk6GJQsqaUBKTNV-1" parent="WIyWlLk6GJQsqaUBKTNV-0" />
        <mxCell id="y0n1fJsFoZS0WrOk_BVb-0" value="&lt;font face=&quot;Georgia&quot; style=&quot;font-size: 17px;&quot; color=&quot;#ffffff&quot;&gt;START&lt;/font&gt;" style="ellipse;whiteSpace=wrap;html=1;fillColor=#690069;labelBackgroundColor=none;strokeColor=#028090;fontColor=#E4FDE1;" vertex="1" parent="WIyWlLk6GJQsqaUBKTNV-1">
          <mxGeometry x="369" y="10" width="90" height="50" as="geometry" />
        </mxCell>
        <mxCell id="y0n1fJsFoZS0WrOk_BVb-8" style="edgeStyle=orthogonalEdgeStyle;rounded=0;orthogonalLoop=1;jettySize=auto;html=1;exitX=0.5;exitY=1;exitDx=0;exitDy=0;exitPerimeter=0;strokeColor=#028090;fontColor=#E4FDE1;fillColor=#F45B69;" edge="1" parent="WIyWlLk6GJQsqaUBKTNV-1" source="y0n1fJsFoZS0WrOk_BVb-3" target="y0n1fJsFoZS0WrOk_BVb-9">
          <mxGeometry relative="1" as="geometry">
            <mxPoint x="414" y="220" as="targetPoint" />
          </mxGeometry>
        </mxCell>
        <mxCell id="y0n1fJsFoZS0WrOk_BVb-3" value="&lt;font color=&quot;#ffffff&quot;&gt;&lt;font face=&quot;Tahoma&quot;&gt;&amp;nbsp;A,B,C,D&lt;/font&gt;&lt;br&gt;&lt;/font&gt;" style="shape=card;whiteSpace=wrap;html=1;strokeColor=#028090;fontColor=#E4FDE1;fillColor=#A17CB3;" vertex="1" parent="WIyWlLk6GJQsqaUBKTNV-1">
          <mxGeometry x="384" y="110" width="60" height="60" as="geometry" />
        </mxCell>
        <mxCell id="y0n1fJsFoZS0WrOk_BVb-6" style="edgeStyle=orthogonalEdgeStyle;rounded=0;orthogonalLoop=1;jettySize=auto;html=1;exitX=0.5;exitY=1;exitDx=0;exitDy=0;strokeColor=#028090;fontColor=#E4FDE1;fillColor=#F45B69;" edge="1" parent="WIyWlLk6GJQsqaUBKTNV-1" source="y0n1fJsFoZS0WrOk_BVb-0" target="y0n1fJsFoZS0WrOk_BVb-0">
          <mxGeometry relative="1" as="geometry" />
        </mxCell>
        <mxCell id="y0n1fJsFoZS0WrOk_BVb-7" style="edgeStyle=orthogonalEdgeStyle;rounded=0;orthogonalLoop=1;jettySize=auto;html=1;exitX=0.5;exitY=1;exitDx=0;exitDy=0;entryX=0;entryY=0;entryDx=30;entryDy=0;entryPerimeter=0;strokeColor=#028090;fontColor=#E4FDE1;fillColor=#F45B69;" edge="1" parent="WIyWlLk6GJQsqaUBKTNV-1" source="y0n1fJsFoZS0WrOk_BVb-0" target="y0n1fJsFoZS0WrOk_BVb-3">
          <mxGeometry relative="1" as="geometry" />
        </mxCell>
        <mxCell id="y0n1fJsFoZS0WrOk_BVb-10" style="edgeStyle=orthogonalEdgeStyle;rounded=0;orthogonalLoop=1;jettySize=auto;html=1;exitX=0.5;exitY=1;exitDx=0;exitDy=0;exitPerimeter=0;strokeColor=#028090;fontColor=#E4FDE1;fillColor=#F45B69;" edge="1" parent="WIyWlLk6GJQsqaUBKTNV-1" source="y0n1fJsFoZS0WrOk_BVb-9" target="y0n1fJsFoZS0WrOk_BVb-11">
          <mxGeometry relative="1" as="geometry">
            <mxPoint x="414" y="400" as="targetPoint" />
          </mxGeometry>
        </mxCell>
        <mxCell id="y0n1fJsFoZS0WrOk_BVb-9" value="&lt;font face=&quot;Tahoma&quot; color=&quot;#ffffff&quot;&gt;&lt;br&gt;&amp;nbsp;angles&lt;br&gt;&lt;br&gt;&amp;nbsp;a,b,c,d&lt;/font&gt;" style="shape=card;whiteSpace=wrap;html=1;strokeColor=#028090;fontColor=#E4FDE1;fillColor=#A17CB3;" vertex="1" parent="WIyWlLk6GJQsqaUBKTNV-1">
          <mxGeometry x="384" y="270" width="60" height="70" as="geometry" />
        </mxCell>
        <mxCell id="y0n1fJsFoZS0WrOk_BVb-12" style="edgeStyle=orthogonalEdgeStyle;rounded=0;orthogonalLoop=1;jettySize=auto;html=1;exitX=1;exitY=0.5;exitDx=0;exitDy=0;strokeColor=#028090;fontColor=#E4FDE1;fillColor=#F45B69;" edge="1" parent="WIyWlLk6GJQsqaUBKTNV-1" source="y0n1fJsFoZS0WrOk_BVb-11" target="y0n1fJsFoZS0WrOk_BVb-13">
          <mxGeometry relative="1" as="geometry">
            <mxPoint x="530" y="530" as="targetPoint" />
          </mxGeometry>
        </mxCell>
        <mxCell id="y0n1fJsFoZS0WrOk_BVb-14" style="edgeStyle=orthogonalEdgeStyle;rounded=0;orthogonalLoop=1;jettySize=auto;html=1;exitX=0;exitY=0.5;exitDx=0;exitDy=0;strokeColor=#028090;fontColor=#E4FDE1;fillColor=#F45B69;" edge="1" parent="WIyWlLk6GJQsqaUBKTNV-1" source="y0n1fJsFoZS0WrOk_BVb-11" target="y0n1fJsFoZS0WrOk_BVb-15">
          <mxGeometry relative="1" as="geometry">
            <mxPoint x="260" y="520" as="targetPoint" />
          </mxGeometry>
        </mxCell>
        <mxCell id="y0n1fJsFoZS0WrOk_BVb-11" value="&lt;font face=&quot;Tahoma&quot; color=&quot;#ffffff&quot;&gt;Is&lt;br&gt;&lt;br&gt;A=B=C=D&lt;br&gt;&lt;br&gt;?&lt;/font&gt;" style="rhombus;whiteSpace=wrap;html=1;strokeColor=#028090;fontColor=#E4FDE1;fillColor=#F45F5F;" vertex="1" parent="WIyWlLk6GJQsqaUBKTNV-1">
          <mxGeometry x="358" y="410" width="111" height="100" as="geometry" />
        </mxCell>
        <mxCell id="y0n1fJsFoZS0WrOk_BVb-17" style="edgeStyle=orthogonalEdgeStyle;rounded=0;orthogonalLoop=1;jettySize=auto;html=1;exitX=1;exitY=0.5;exitDx=0;exitDy=0;strokeColor=#028090;fontColor=#E4FDE1;fillColor=#F45B69;" edge="1" parent="WIyWlLk6GJQsqaUBKTNV-1" source="y0n1fJsFoZS0WrOk_BVb-13" target="y0n1fJsFoZS0WrOk_BVb-18">
          <mxGeometry relative="1" as="geometry">
            <mxPoint x="700" y="640" as="targetPoint" />
          </mxGeometry>
        </mxCell>
        <mxCell id="y0n1fJsFoZS0WrOk_BVb-20" style="edgeStyle=orthogonalEdgeStyle;rounded=0;orthogonalLoop=1;jettySize=auto;html=1;exitX=0;exitY=0.5;exitDx=0;exitDy=0;entryX=1;entryY=0.5;entryDx=0;entryDy=0;strokeColor=#028090;fontColor=#E4FDE1;fillColor=#F45B69;" edge="1" parent="WIyWlLk6GJQsqaUBKTNV-1" source="y0n1fJsFoZS0WrOk_BVb-13" target="y0n1fJsFoZS0WrOk_BVb-15">
          <mxGeometry relative="1" as="geometry" />
        </mxCell>
        <mxCell id="y0n1fJsFoZS0WrOk_BVb-13" value="&lt;font face=&quot;Tahoma&quot; color=&quot;#ffffff&quot;&gt;Is&lt;br&gt;&lt;br&gt;&amp;nbsp;a=b=c=d=90Â°&lt;br&gt;&lt;br&gt;?&lt;/font&gt;" style="rhombus;whiteSpace=wrap;html=1;strokeColor=#028090;fontColor=#E4FDE1;fillColor=#F45B69;" vertex="1" parent="WIyWlLk6GJQsqaUBKTNV-1">
          <mxGeometry x="500" y="520" width="110" height="100" as="geometry" />
        </mxCell>
        <mxCell id="y0n1fJsFoZS0WrOk_BVb-22" style="edgeStyle=orthogonalEdgeStyle;rounded=0;orthogonalLoop=1;jettySize=auto;html=1;exitX=0;exitY=0.75;exitDx=0;exitDy=0;strokeColor=#028090;fontColor=#E4FDE1;fillColor=#F45B69;entryX=0;entryY=0.5;entryDx=0;entryDy=0;" edge="1" parent="WIyWlLk6GJQsqaUBKTNV-1" source="y0n1fJsFoZS0WrOk_BVb-15" target="y0n1fJsFoZS0WrOk_BVb-23">
          <mxGeometry relative="1" as="geometry">
            <mxPoint x="200" y="640" as="targetPoint" />
          </mxGeometry>
        </mxCell>
        <mxCell id="y0n1fJsFoZS0WrOk_BVb-15" value="&lt;font face=&quot;Tahoma&quot; color=&quot;#ffffff&quot;&gt;&quot;Not a square&quot;&lt;/font&gt;" style="shape=document;whiteSpace=wrap;html=1;boundedLbl=1;strokeColor=#028090;fontColor=#E4FDE1;fillColor=#783C00;" vertex="1" parent="WIyWlLk6GJQsqaUBKTNV-1">
          <mxGeometry x="220" y="540" width="90" height="60" as="geometry" />
        </mxCell>
        <mxCell id="y0n1fJsFoZS0WrOk_BVb-21" style="edgeStyle=orthogonalEdgeStyle;rounded=0;orthogonalLoop=1;jettySize=auto;html=1;exitX=0;exitY=0.75;exitDx=0;exitDy=0;strokeColor=#028090;fontColor=#E4FDE1;fillColor=#F45B69;" edge="1" parent="WIyWlLk6GJQsqaUBKTNV-1" source="y0n1fJsFoZS0WrOk_BVb-18" target="y0n1fJsFoZS0WrOk_BVb-23">
          <mxGeometry relative="1" as="geometry">
            <mxPoint x="470" y="675" as="targetPoint" />
          </mxGeometry>
        </mxCell>
        <mxCell id="y0n1fJsFoZS0WrOk_BVb-18" value="&lt;font face=&quot;Tahoma&quot; color=&quot;#ffffff&quot;&gt;&quot;It&#39;s a square&quot;&lt;/font&gt;" style="shape=document;whiteSpace=wrap;html=1;boundedLbl=1;strokeColor=#028090;fontColor=#E4FDE1;fillColor=#783C00;" vertex="1" parent="WIyWlLk6GJQsqaUBKTNV-1">
          <mxGeometry x="650" y="630" width="90" height="60" as="geometry" />
        </mxCell>
        <mxCell id="y0n1fJsFoZS0WrOk_BVb-23" value="&lt;font face=&quot;Georgia&quot; style=&quot;font-size: 17px;&quot; color=&quot;#ffffff&quot;&gt;END&lt;/font&gt;" style="ellipse;whiteSpace=wrap;html=1;fillColor=#690069;labelBackgroundColor=none;strokeColor=#028090;fontColor=#E4FDE1;" vertex="1" parent="WIyWlLk6GJQsqaUBKTNV-1">
          <mxGeometry x="369" y="650" width="90" height="50" as="geometry" />
        </mxCell>
      </root>
    </mxGraphModel>
  </diagram>
</mxfile>
